<svg aria-hidden="true" style="position:absolute;width:0;height:0" xmlns="http://www.w3.org/2000/svg" overflow="hidden"><defs>
<symbol id="icon-no-check" viewBox="0 0 34 32"><path d="M30.34 3.56v24.88H3.8V3.56h26.54zm0-3.56H3.8C1.7 0 0 1.6 0 3.56v24.88C0 30.4 1.7 32 3.8 32h26.54c2.09 0 3.8-1.6 3.8-3.56V3.56c0-1.96-1.71-3.56-3.8-3.56z"/></symbol>
<symbol id="icon-close-modal" viewBox="0 0 32 32"><path d="M32 3.2L28.8 0 16 12.8 3.2 0 0 3.2 12.8 16 0 28.8 3.2 32 16 19.2 28.8 32l3.2-3.2L19.2 16 32 3.2z"/></symbol><symbol id="icon-close-modal1" viewBox="0 0 32 32"><path d="M26.67 7.29L24.7 5.33l-7.82 7.83-7.82-7.83L7.1 7.3l7.82 7.82-7.82 7.82 1.96 1.96 7.82-7.82 7.82 7.82 1.96-1.96-7.83-7.82 7.83-7.82z"/></symbol><symbol id="icon-email-modal" viewBox="0 0 32 32"><path d="M26.67 5.33H5.33A2.66 2.66 0 002.67 8v16c0 1.46 1.19 2.67 2.66 2.67h21.34c1.45 0 2.66-1.21 2.66-2.67V8c0-1.48-1.2-2.67-2.66-2.67zM26.13 11l-9.42 5.89a1.34 1.34 0 01-1.43 0l-9.41-5.87a1.14 1.14 0 111.2-1.92L16 14.66l8.94-5.58a1.14 1.14 0 111.2 1.92z"/></symbol><symbol id="icon-phone-modal" viewBox="0 0 32 32"><path d="M24.89 19.77l-3.27-.36c-.78-.1-1.57.18-2.12.71l-2.36 2.39a19.5 19.5 0 01-8.43-8.38l-.05-.1 2.38-2.39c.55-.55.82-1.33.73-2.11l-.36-3.24a2.58 2.58 0 00-2.56-2.27H6.61a2.56 2.56 0 00-2.58 2.66c.72 11 9.46 19.73 20.38 20.44h.07a2.56 2.56 0 002.67-2.57v-2.22c0-1.32-.96-2.4-2.26-2.56z"/></symbol><symbol id="icon-person-modal" viewBox="0 0 32 32"><path d="M16 16a5.33 5.33 0 100-10.67A5.33 5.33 0 1016 16zm0 2.67c-3.56 0-10.67 1.77-10.67 5.33v1.33c0 .73.6 1.34 1.34 1.34h18.66c.73 0 1.34-.6 1.34-1.34V24c0-3.56-7.12-5.33-10.67-5.33z"/></symbol></defs></svg>